<svg width="263" height="67" viewBox="0 0 263 67" fill="none" xmlns="http://www.w3.org/2000/svg">
<path d="M10 10H48.5L39.5 25.5L36 19H24.5L33.5 36V56L26 62.5L24.5 36L10 10Z" fill="#52278A" stroke="#52278A"/>
<path d="M46 53L66 18.5H54L46 34.5V53Z" fill="#E25333" stroke="#E25333"/>
<path d="M92.224 48V38.848L93.408 41.984L83.552 25.6H89.056L96.608 38.176H93.44L101.024 25.6H106.112L96.256 41.984L97.408 38.848V48H92.224ZM109.242 48L119.226 25.6H124.346L134.362 48H128.922L120.73 28.224H122.778L114.554 48H109.242ZM114.234 43.2L115.61 39.264H127.13L128.538 43.2H114.234ZM139.741 48L149.725 25.6H154.845L164.861 48H159.421L151.229 28.224H153.277L145.053 48H139.741ZM144.733 43.2L146.109 39.264H157.629L159.037 43.2H144.733ZM172.465 48V25.6H177.649V43.776H188.881V48H172.465ZM197.057 48V25.6H202.241V48H197.057ZM217.477 42.88L217.189 36.896L227.909 25.6H233.669L224.005 36L221.125 39.072L217.477 42.88ZM212.837 48V25.6H217.989V48H212.837ZM228.165 48L220.197 38.24L223.589 34.56L234.213 48H228.165ZM237.83 48L247.814 25.6H252.934L262.95 48H257.51L249.318 28.224H251.366L243.142 48H237.83ZM242.822 43.2L244.198 39.264H255.718L257.126 43.2H242.822Z" fill="url(#paint0_linear_3_42)"/>
<defs>
<linearGradient id="paint0_linear_3_42" x1="173.5" y1="17" x2="173.5" y2="56" gradientUnits="userSpaceOnUse">
<stop stop-color="#52278A"/>
<stop offset="1" stop-color="#E25333"/>
</linearGradient>
</defs>
</svg>
